<svg viewBox="0 0 512 512" xmlns="http://www.w3.org/2000/svg" xmlns:xlink="http://www.w3.org/1999/xlink" width="512.000000" height="512.000000" fill="none">
	<defs>
		<clipPath id="clipPath_1">
			<rect width="396.000000" height="158.000000" x="58.000000" y="177.000000" fill="rgb(255,255,255)" />
		</clipPath>
	</defs>
	<rect id="尺寸1" width="512.000000" height="512.000000" x="0.000000" y="0.000000" fill="rgb(255,255,255)" fill-opacity="0" />
	<g id="矩形 1" customFrame="url(#clipPath_1)">
		<rect id="矩形 1" width="396.000000" height="158.000000" x="58.000000" y="177.000000" fill="rgb(255,255,255)" fill-opacity="0" />
		<path id="Vector" d="M331.877 333.072C330.046 332.89 328.204 333.281 326.604 334.193C325.003 335.104 323.721 336.491 322.935 338.163C322.148 339.835 321.894 341.711 322.209 343.533C322.523 345.356 323.39 347.036 324.691 348.344C325.992 349.652 327.663 350.524 329.475 350.84C331.288 351.156 333.153 350.901 334.816 350.11C336.479 349.319 337.858 348.03 338.764 346.421C339.671 344.811 340.06 342.959 339.879 341.118C339.673 339.055 338.764 337.126 337.305 335.66C335.847 334.193 333.929 333.279 331.877 333.072ZM353.361 342C353.355 342.975 353.284 343.949 353.147 344.914L359.45 349.886C359.725 350.114 359.909 350.433 359.972 350.786C360.035 351.139 359.971 351.503 359.792 351.813L353.829 362.187C353.648 362.494 353.365 362.727 353.03 362.845C352.695 362.962 352.329 362.957 351.997 362.83L345.737 360.296C345.392 360.158 345.018 360.108 344.649 360.15C344.28 360.193 343.927 360.328 343.622 360.541C342.667 361.203 341.663 361.79 340.62 362.299C340.291 362.459 340.008 362.699 339.793 362.995C339.579 363.292 339.44 363.638 339.39 364.001L338.452 370.714C338.39 371.069 338.208 371.391 337.936 371.626C337.665 371.86 337.321 371.992 336.963 372L325.037 372C324.685 371.994 324.346 371.867 324.075 371.641C323.804 371.415 323.618 371.103 323.547 370.757L322.61 364.053C322.557 363.685 322.415 363.337 322.197 363.038C321.978 362.739 321.689 362.499 321.355 362.34C320.313 361.834 319.312 361.244 318.364 360.578C318.06 360.365 317.708 360.232 317.34 360.19C316.973 360.148 316.6 360.199 316.257 360.338L309.999 362.871C309.667 362.998 309.302 363.003 308.966 362.886C308.631 362.768 308.348 362.536 308.167 362.229L302.204 351.855C302.025 351.545 301.961 351.181 302.023 350.828C302.086 350.475 302.271 350.156 302.546 349.928L307.873 345.722C308.165 345.489 308.394 345.186 308.54 344.842C308.686 344.497 308.744 344.121 308.709 343.748C308.659 343.164 308.628 342.58 308.628 341.996C308.628 341.411 308.658 340.836 308.709 340.264C308.74 339.894 308.679 339.521 308.532 339.18C308.384 338.839 308.154 338.54 307.863 338.31L302.539 334.105C302.268 333.875 302.087 333.557 302.027 333.206C301.966 332.856 302.031 332.495 302.208 332.187L308.171 321.813C308.352 321.506 308.635 321.273 308.97 321.155C309.305 321.038 309.671 321.043 310.003 321.17L316.263 323.704C316.608 323.842 316.982 323.892 317.351 323.85C317.72 323.807 318.073 323.672 318.378 323.459C319.333 322.797 320.337 322.21 321.38 321.701C321.709 321.541 321.992 321.301 322.207 321.005C322.421 320.708 322.56 320.362 322.61 319.999L323.548 313.286C323.61 312.931 323.792 312.609 324.064 312.374C324.335 312.14 324.679 312.008 325.037 312L336.963 312C337.315 312.006 337.654 312.133 337.925 312.359C338.196 312.585 338.382 312.897 338.453 313.243L339.39 319.947C339.443 320.315 339.585 320.663 339.803 320.962C340.022 321.261 340.311 321.501 340.645 321.66C341.687 322.166 342.688 322.756 343.636 323.422C343.94 323.635 344.292 323.768 344.66 323.81C345.027 323.852 345.4 323.801 345.743 323.662L352.001 321.129C352.333 321.002 352.698 320.997 353.034 321.114C353.369 321.232 353.652 321.464 353.833 321.771L359.796 332.145C359.975 332.455 360.039 332.819 359.977 333.172C359.914 333.525 359.729 333.844 359.454 334.072L354.127 338.278C353.834 338.51 353.603 338.812 353.456 339.157C353.309 339.502 353.25 339.878 353.284 340.252C353.33 340.832 353.361 341.415 353.361 342Z" fill="rgb(232,232,234)" fill-rule="nonzero" />
		<path id="Vector" d="M326.604 334.193C325.003 335.104 323.721 336.491 322.935 338.163C322.148 339.835 321.894 341.711 322.209 343.533C322.523 345.356 323.39 347.036 324.691 348.344C325.992 349.652 327.663 350.524 329.475 350.84C331.288 351.156 333.153 350.901 334.816 350.11C336.479 349.319 337.858 348.03 338.764 346.421C339.671 344.811 340.06 342.959 339.879 341.118C339.673 339.055 338.764 337.126 337.305 335.66C335.847 334.193 333.929 333.279 331.877 333.072C330.046 332.89 328.204 333.281 326.604 334.193ZM353.147 344.914L359.45 349.886C359.725 350.114 359.909 350.433 359.972 350.786C360.035 351.139 359.971 351.503 359.792 351.813L353.829 362.187C353.648 362.494 353.365 362.727 353.03 362.845C352.695 362.962 352.329 362.957 351.997 362.83L345.737 360.296C345.392 360.158 345.018 360.108 344.649 360.15C344.28 360.193 343.927 360.328 343.622 360.541C342.667 361.203 341.663 361.79 340.62 362.299C340.291 362.459 340.008 362.699 339.793 362.995C339.579 363.292 339.44 363.638 339.39 364.001L338.452 370.714C338.39 371.069 338.208 371.391 337.936 371.626C337.665 371.86 337.321 371.992 336.963 372L325.037 372C324.685 371.994 324.346 371.867 324.075 371.641C323.804 371.415 323.618 371.103 323.547 370.757L322.61 364.053C322.557 363.685 322.415 363.337 322.197 363.038C321.978 362.739 321.689 362.499 321.355 362.34C320.313 361.834 319.312 361.244 318.364 360.578C318.06 360.365 317.708 360.232 317.34 360.19C316.973 360.148 316.6 360.199 316.257 360.338L309.999 362.871C309.667 362.998 309.302 363.003 308.966 362.886C308.631 362.768 308.348 362.536 308.167 362.229L302.204 351.855C302.025 351.545 301.961 351.181 302.023 350.828C302.086 350.475 302.271 350.156 302.546 349.928L307.873 345.722C308.165 345.489 308.394 345.186 308.54 344.842C308.686 344.497 308.744 344.121 308.709 343.748C308.659 343.164 308.628 342.58 308.628 341.996C308.628 341.411 308.658 340.836 308.709 340.264C308.74 339.894 308.679 339.521 308.532 339.18C308.384 338.839 308.154 338.54 307.863 338.31L302.539 334.105C302.268 333.875 302.087 333.557 302.027 333.206C301.966 332.856 302.031 332.495 302.208 332.187L308.171 321.813C308.352 321.506 308.635 321.273 308.97 321.155C309.305 321.038 309.671 321.043 310.003 321.17L316.263 323.704C316.608 323.842 316.982 323.892 317.351 323.85C317.72 323.807 318.073 323.672 318.378 323.459C319.333 322.797 320.337 322.21 321.38 321.701C321.709 321.541 321.992 321.301 322.207 321.005C322.421 320.708 322.56 320.362 322.61 319.999L323.548 313.286C323.61 312.931 323.792 312.609 324.064 312.374C324.335 312.14 324.679 312.008 325.037 312L336.963 312C337.315 312.006 337.654 312.133 337.925 312.359C338.196 312.585 338.382 312.897 338.453 313.243L339.39 319.947C339.443 320.315 339.585 320.663 339.803 320.962C340.022 321.261 340.311 321.501 340.645 321.66C341.687 322.166 342.688 322.756 343.636 323.422C343.94 323.635 344.292 323.768 344.66 323.81C345.027 323.852 345.4 323.801 345.743 323.662L352.001 321.129C352.333 321.002 352.698 320.997 353.034 321.114C353.369 321.232 353.652 321.464 353.833 321.771L359.796 332.145C359.975 332.455 360.039 332.819 359.977 333.172C359.914 333.525 359.729 333.844 359.454 334.072L354.127 338.278C353.834 338.51 353.603 338.812 353.456 339.157C353.309 339.502 353.25 339.878 353.284 340.252C353.33 340.832 353.361 341.415 353.361 342C353.355 342.975 353.284 343.949 353.147 344.914Z" fill-rule="nonzero" stroke="rgb(51,81,118)" stroke-linecap="round" stroke-linejoin="round" stroke-width="4.000000" />
		<path id="矩形 1" d="M444 177C449.523 177 454 181.477 454 187L454 325C454 330.523 449.523 335 444 335L68 335C62.4772 335 58 330.523 58 325L58 217C58 194.909 75.9086 177 98 177L444 177Z" fill="rgb(124,210,135)" fill-rule="evenodd" />
		<ellipse id="椭圆 1" rx="16.000000" ry="15.000000" cx="433" cy="327" fill="rgb(232,232,234)" />
		<path id="Vector" d="M434.967 312.119C431.905 311.816 428.825 312.469 426.148 313.988C423.47 315.507 421.327 317.818 420.011 320.605C418.696 323.392 418.272 326.518 418.797 329.555C419.323 332.593 420.773 335.394 422.948 337.574C425.124 339.754 427.919 341.206 430.95 341.733C433.981 342.26 437.101 341.835 439.882 340.517C442.663 339.198 444.969 337.051 446.485 334.368C448.001 331.685 448.652 328.598 448.35 325.53C448.005 322.091 446.484 318.877 444.045 316.433C441.606 313.989 438.399 312.465 434.967 312.119ZM470.896 327C470.887 328.625 470.767 330.248 470.539 331.857L481.08 340.143C481.539 340.524 481.849 341.056 481.953 341.644C482.058 342.232 481.951 342.838 481.652 343.355L471.68 360.645C471.377 361.157 470.903 361.545 470.343 361.741C469.782 361.937 469.171 361.929 468.616 361.717L458.147 357.493C457.57 357.263 456.944 357.179 456.327 357.251C455.71 357.322 455.12 357.546 454.61 357.902C453.012 359.004 451.333 359.984 449.588 360.832C449.039 361.099 448.564 361.498 448.206 361.992C447.847 362.487 447.615 363.063 447.531 363.668L445.962 374.857C445.859 375.448 445.555 375.985 445.1 376.376C444.646 376.767 444.071 376.987 443.472 377L423.528 377C422.939 376.99 422.372 376.779 421.919 376.402C421.466 376.026 421.154 375.505 421.035 374.928L419.469 363.755C419.381 363.142 419.143 362.561 418.777 362.063C418.411 361.565 417.928 361.165 417.37 360.9C415.627 360.056 413.953 359.074 412.367 357.963C411.859 357.608 411.271 357.386 410.656 357.317C410.041 357.247 409.418 357.332 408.844 357.563L398.377 361.785C397.823 361.997 397.211 362.005 396.651 361.81C396.09 361.614 395.617 361.226 395.314 360.715L385.341 343.425C385.042 342.909 384.934 342.302 385.039 341.714C385.144 341.126 385.453 340.594 385.913 340.213L394.822 333.203C395.31 332.815 395.693 332.311 395.938 331.736C396.182 331.162 396.279 330.535 396.221 329.914C396.137 328.939 396.085 327.967 396.085 326.993C396.085 326.019 396.134 325.061 396.221 324.107C396.273 323.49 396.171 322.868 395.924 322.3C395.677 321.731 395.292 321.233 394.805 320.85L385.901 313.841C385.449 313.458 385.146 312.928 385.045 312.344C384.944 311.759 385.051 311.158 385.348 310.645L395.321 293.355C395.623 292.843 396.097 292.455 396.657 292.259C397.218 292.063 397.829 292.071 398.384 292.283L408.853 296.507C409.43 296.737 410.056 296.821 410.673 296.749C411.29 296.678 411.88 296.454 412.39 296.098C413.988 294.996 415.667 294.016 417.412 293.168C417.961 292.901 418.436 292.502 418.794 292.008C419.153 291.513 419.385 290.937 419.469 290.332L421.038 279.143C421.141 278.552 421.445 278.015 421.9 277.624C422.354 277.233 422.929 277.013 423.528 277L443.472 277C444.061 277.01 444.628 277.221 445.081 277.598C445.534 277.974 445.846 278.495 445.965 279.072L447.531 290.245C447.619 290.858 447.857 291.439 448.223 291.937C448.589 292.435 449.072 292.835 449.63 293.1C451.373 293.944 453.047 294.926 454.633 296.037C455.141 296.392 455.729 296.614 456.344 296.683C456.959 296.753 457.582 296.668 458.156 296.437L468.623 292.215C469.177 292.003 469.789 291.995 470.349 292.19C470.91 292.386 471.383 292.774 471.686 293.285L481.659 310.575C481.958 311.091 482.066 311.698 481.961 312.286C481.856 312.874 481.547 313.406 481.087 313.787L472.178 320.797C471.688 321.184 471.302 321.687 471.056 322.262C470.81 322.837 470.711 323.464 470.768 324.086C470.845 325.054 470.896 326.026 470.896 327Z" fill="rgb(232,232,234)" fill-rule="nonzero" />
		<path id="Vector" d="M426.148 313.988C423.47 315.507 421.327 317.818 420.011 320.605C418.696 323.392 418.272 326.518 418.797 329.555C419.323 332.593 420.773 335.394 422.948 337.574C425.124 339.754 427.919 341.206 430.95 341.733C433.981 342.26 437.101 341.835 439.882 340.517C442.663 339.198 444.969 337.051 446.485 334.368C448.001 331.685 448.652 328.598 448.35 325.53C448.005 322.091 446.484 318.877 444.045 316.433C441.606 313.989 438.399 312.465 434.967 312.119C431.905 311.816 428.825 312.469 426.148 313.988ZM470.539 331.857L481.08 340.143C481.539 340.524 481.849 341.056 481.953 341.644C482.058 342.232 481.951 342.838 481.652 343.355L471.68 360.645C471.377 361.157 470.903 361.545 470.343 361.741C469.782 361.937 469.171 361.929 468.616 361.717L458.147 357.493C457.57 357.263 456.944 357.179 456.327 357.251C455.71 357.322 455.12 357.546 454.61 357.902C453.012 359.004 451.333 359.984 449.588 360.832C449.039 361.099 448.564 361.498 448.206 361.992C447.847 362.487 447.615 363.063 447.531 363.668L445.962 374.857C445.859 375.448 445.555 375.985 445.1 376.376C444.646 376.767 444.071 376.987 443.472 377L423.528 377C422.939 376.99 422.372 376.779 421.919 376.402C421.466 376.026 421.154 375.505 421.035 374.928L419.469 363.755C419.381 363.142 419.143 362.561 418.777 362.063C418.411 361.565 417.928 361.165 417.37 360.9C415.627 360.056 413.953 359.074 412.367 357.963C411.859 357.608 411.271 357.386 410.656 357.317C410.041 357.247 409.418 357.332 408.844 357.563L398.377 361.785C397.823 361.997 397.211 362.005 396.651 361.81C396.09 361.614 395.617 361.226 395.314 360.715L385.341 343.425C385.042 342.909 384.934 342.302 385.039 341.714C385.144 341.126 385.453 340.594 385.913 340.213L394.822 333.203C395.31 332.815 395.693 332.311 395.938 331.736C396.182 331.162 396.279 330.535 396.221 329.914C396.137 328.939 396.085 327.967 396.085 326.993C396.085 326.019 396.134 325.061 396.221 324.107C396.273 323.49 396.171 322.868 395.924 322.3C395.677 321.731 395.292 321.233 394.805 320.85L385.901 313.841C385.449 313.458 385.146 312.928 385.045 312.344C384.944 311.759 385.051 311.158 385.348 310.645L395.321 293.355C395.623 292.843 396.097 292.455 396.657 292.259C397.218 292.063 397.829 292.071 398.384 292.283L408.853 296.507C409.43 296.737 410.056 296.821 410.673 296.749C411.29 296.678 411.88 296.454 412.39 296.098C413.988 294.996 415.667 294.016 417.412 293.168C417.961 292.901 418.436 292.502 418.794 292.008C419.153 291.513 419.385 290.937 419.469 290.332L421.038 279.143C421.141 278.552 421.445 278.015 421.9 277.624C422.354 277.233 422.929 277.013 423.528 277L443.472 277C444.061 277.01 444.628 277.221 445.081 277.598C445.534 277.974 445.846 278.495 445.965 279.072L447.531 290.245C447.619 290.858 447.857 291.439 448.223 291.937C448.589 292.435 449.072 292.835 449.63 293.1C451.373 293.944 453.047 294.926 454.633 296.037C455.141 296.392 455.729 296.614 456.344 296.683C456.959 296.753 457.582 296.668 458.156 296.437L468.623 292.215C469.177 292.003 469.789 291.995 470.349 292.19C470.91 292.386 471.383 292.774 471.686 293.285L481.659 310.575C481.958 311.091 482.066 311.698 481.961 312.286C481.856 312.874 481.547 313.406 481.087 313.787L472.178 320.797C471.688 321.184 471.302 321.687 471.056 322.262C470.81 322.837 470.711 323.464 470.768 324.086C470.845 325.054 470.896 326.026 470.896 327C470.887 328.625 470.767 330.248 470.539 331.857Z" fill-rule="nonzero" stroke="rgb(51,81,118)" stroke-linecap="round" stroke-linejoin="round" stroke-width="5.000000" />
		<g id="组合 1">
			<path id="矩形 3" d="M52.1415 0L52.1415 147.951C52.1415 161.758 40.9486 172.951 27.1415 172.951L25 172.951C11.1929 172.951 0 161.758 0 147.951L0 0L52.1415 0Z" fill="rgb(232,232,234)" fill-rule="evenodd" transform="matrix(0.766045,0.642788,-0.642788,0.766045,442.312,229.141)" />
			<path id="矩形 3" d="M52.1415 6L52.1415 0L0 0L0 147.951C0 161.758 11.1929 172.951 25 172.951L27.1415 172.951C40.9486 172.951 52.1415 161.758 52.1415 147.951L52.1415 6ZM46.1415 6L46.1415 147.951C46.1415 150.574 45.6777 153.006 44.7502 155.245C43.8227 157.484 42.4315 159.531 40.5765 161.386C38.7215 163.241 36.6744 164.632 34.4353 165.56C32.1961 166.487 29.7648 166.951 27.1415 166.951L25 166.951C22.3766 166.951 19.9454 166.487 17.7062 165.56C15.467 164.632 13.42 163.241 11.565 161.386C9.70996 159.531 8.3187 157.484 7.39121 155.245C6.46374 153.005 6 150.574 6 147.951L6 6L46.1415 6Z" fill="rgb(51,81,118)" fill-rule="evenodd" transform="matrix(0.766045,0.642788,-0.642788,0.766045,442.312,229.141)" />
			<rect id="矩形 2" width="69.606071" height="24.976654" x="0.000000" y="0.000000" rx="12.488327" fill="rgb(232,232,234)" transform="matrix(0.766044,0.642788,-0.642788,0.766044,447.043,209)" />
			<rect id="矩形 2" width="63.606071" height="18.976654" x="3.000000" y="3.000000" rx="9.488327" stroke="rgb(51,81,118)" stroke-width="6.000000" transform="matrix(0.766044,0.642788,-0.642788,0.766044,447.043,209)" />
		</g>
		<path id="" d="M145.322 286.316C141.123 287.586 136.419 288.221 131.211 288.221C121.022 288.221 113.055 285.633 107.31 280.457C101.564 275.281 98.6914 267.99 98.6914 258.582C98.6914 253.797 99.3831 249.093 100.767 244.471C102.15 239.848 104.258 235.462 107.09 231.312C109.922 227.161 113.413 223.694 117.563 220.911C121.714 218.128 125.783 216.313 129.771 215.467C133.758 214.62 137.835 214.197 142.002 214.197C152.874 214.197 160.874 217.086 166.001 222.864C171.128 228.642 173.691 235.861 173.691 244.52C173.691 250.411 172.43 256.523 169.907 262.854C167.384 269.186 163.145 274.793 157.188 279.676C162.135 283.81 165.342 286.251 166.807 287L158.604 298.523C155.674 296.408 151.247 292.339 145.322 286.316ZM143.809 266.688C146.283 263.725 148.268 260.022 149.766 255.579C151.263 251.136 152.012 247.107 152.012 243.494C152.012 239.718 150.872 236.609 148.594 234.168C146.315 231.727 143.32 230.506 139.609 230.506C135.573 230.506 132.098 231.979 129.185 234.925C126.271 237.871 124.082 241.81 122.617 246.741C121.152 251.673 120.42 255.864 120.42 259.314C120.42 262.863 121.486 265.849 123.618 268.274C125.75 270.7 128.77 271.912 132.676 271.912L135.117 271.814C134.141 270.317 132.668 268.812 130.698 267.298C128.729 265.784 127.402 264.718 126.719 264.1L131.895 256.922C135.312 258.973 139.284 262.228 143.809 266.688ZM251.963 215.418L248.301 232.996L225.059 232.996L213.389 287L191.172 287L202.793 232.996L180.576 232.996L184.287 215.418L251.963 215.418ZM296.787 273.719C293.89 278.862 290.106 282.565 285.435 284.827C280.763 287.09 274.912 288.221 267.881 288.221C257.659 288.221 250.392 285.918 246.079 281.312C241.766 276.705 239.609 271.066 239.609 264.393C239.609 259.77 240.618 255.416 242.637 251.331C244.655 247.246 247.389 243.82 250.84 241.053C254.29 238.286 257.692 236.422 261.045 235.462C264.398 234.502 268.32 234.021 272.812 234.021C282.48 234.021 289.414 236.121 293.613 240.32C297.812 244.52 299.912 249.679 299.912 255.799C299.912 257.817 299.473 261.284 298.594 266.199L259.092 266.199C259.645 273.133 262.754 276.6 268.418 276.6C272.259 276.6 275.319 275.037 277.598 271.912L296.787 273.719ZM280.186 256.58C280.413 255.864 280.527 254.871 280.527 253.602C280.527 250.965 279.738 248.971 278.159 247.62C276.58 246.269 274.635 245.594 272.324 245.594C269.883 245.594 267.637 246.513 265.586 248.353C263.535 250.192 261.973 252.934 260.898 256.58L280.186 256.58ZM361.094 247.596L342.49 249.598C341.937 246.473 339.609 244.91 335.508 244.91C333.099 244.91 331.276 245.35 330.039 246.229C328.802 247.107 328.184 248.133 328.184 249.305C328.184 250.509 328.729 251.51 329.819 252.308C330.91 253.105 333.831 253.846 338.584 254.529C346.234 255.669 351.32 257.386 353.843 259.681C356.366 261.976 357.627 265.044 357.627 268.885C357.627 274.223 355.153 278.781 350.205 282.557C345.257 286.333 337.721 288.221 327.598 288.221C319.329 288.221 313.275 287.016 309.434 284.607C305.592 282.199 303.346 278.227 302.695 272.693L322.324 270.984C323.171 275.184 325.938 277.283 330.625 277.283C332.806 277.283 334.735 276.811 336.411 275.867C338.088 274.923 338.926 273.572 338.926 271.814C338.926 270.219 338.324 269.145 337.119 268.592C335.915 268.038 333.636 267.501 330.283 266.98C322.568 265.776 317.344 263.953 314.609 261.512C311.875 259.07 310.508 255.994 310.508 252.283C310.508 249.256 311.533 246.294 313.584 243.396C315.635 240.499 318.735 238.213 322.886 236.536C327.036 234.86 332.139 234.021 338.193 234.021C345.127 234.021 350.441 235.039 354.136 237.073C357.83 239.108 360.15 242.615 361.094 247.596ZM408.799 235.193L405.771 249.402L395.371 249.402L391.562 267.713C391.302 268.494 391.172 269.324 391.172 270.203C391.172 272.547 392.718 273.719 395.811 273.719C396.787 273.719 398.838 273.41 401.963 272.791L398.984 287C392.995 287.814 388.6 288.221 385.801 288.221C380.234 288.221 376.287 286.886 373.96 284.217C371.632 281.548 370.469 278.634 370.469 275.477C370.469 274.435 370.941 271.652 371.885 267.127L375.596 249.402L368.467 249.402L371.396 235.193L378.672 235.193L380.381 227.088L402.598 216.004L398.496 235.193L408.799 235.193Z" fill="rgb(255,255,255)" fill-rule="nonzero" />
		<path id="Vector" d="M457.812 277L444.944 277C442.146 277 439.484 278.341 437.838 280.639L394.707 340.284L375.172 313.252C373.526 310.981 370.892 309.613 368.066 309.613L355.198 309.613C353.415 309.613 352.372 311.638 353.415 313.088L387.601 360.367C388.409 361.491 389.474 362.407 390.707 363.039C391.94 363.67 393.307 364 394.694 364C396.08 364 397.447 363.67 398.68 363.039C399.914 362.407 400.978 361.491 401.786 360.367L459.568 280.475C460.638 279.025 459.595 277 457.812 277Z" fill="rgb(124,210,135)" fill-rule="nonzero" />
		<path id="Vector" d="M444.944 277C442.146 277 439.484 278.341 437.838 280.639L394.707 340.284L375.172 313.252C373.526 310.981 370.892 309.613 368.066 309.613L355.198 309.613C353.415 309.613 352.372 311.638 353.415 313.088L387.601 360.367C388.409 361.491 389.474 362.407 390.707 363.039C391.94 363.67 393.307 364 394.694 364C396.08 364 397.447 363.67 398.68 363.039C399.914 362.407 400.978 361.491 401.786 360.367L459.568 280.475C460.638 279.025 459.595 277 457.812 277L444.944 277Z" fill-rule="nonzero" stroke="rgb(51,81,118)" stroke-width="5.000000" />
	</g>
</svg>
